<svg xmlns="http://www.w3.org/2000/svg" viewBox="0 0 551.473 378.125"><g fill="#fcd277"><path d="M482.02 57.178c-20.465-6.315-171.827-31.64-206.244-33.003-34.42 1.362-185.774 26.688-206.248 33.003-.74 42.202-41.393 131.882-41.393 131.882s40.656 89.682 41.393 131.884c20.474 6.312 171.828 31.64 206.248 33.003 34.417-1.362 185.779-26.694 206.245-33.003.74-42.202 41.392-131.884 41.392-131.884 0-.003-40.653-89.683-41.392-131.882"/><path d="M548.078 181.55v-.002c-11.394-25.077-41.094-97.435-41.677-130.677l-.23-12.428-10.763-3.327C474.748 28.747 313.576 1.493 276.328.027L275.781 0l-.572.027C237.921 1.495 76.785 28.75 56.145 35.121l-10.778 3.324-.22 12.429C44.578 83.969 14.875 156.417 3.478 181.54l-3.416 7.525.003.005-.065.147.444.685 3.034 6.672c11.397 25.126 41.1 97.579 41.672 130.671l.22 12.432 10.775 3.326c20.645 6.369 181.781 33.62 219.043 35.09l.593.032.52-.033c37.283-1.465 198.452-28.72 219.107-35.091l10.76-3.324.23-12.432c.58-33.227 30.28-105.594 41.677-130.679l3.397-7.506zm-15.622 24.75c-11.597 27.46-35.815 88.525-36.395 120.74l-.062 4.182-3.432 1.06c-20.39 6.281-179.736 33.203-216.615 34.666l-.133.005-.203-.003c-36.904-1.465-196.244-28.387-216.634-34.666l-3.435-1.062-.07-4.185c-.583-33.263-26.407-97.34-37.484-123.346a653 653 0 0 0-5.25-12.044l-1.176-2.587 1.17-2.577c.19-.414 2.273-5.052 5.253-12.052 11.077-26.005 36.901-90.085 37.484-123.346l.07-4.185 3.435-1.06c20.41-6.284 179.754-33.206 216.637-34.668l.084-.008.225.008c36.882 1.462 196.235 28.381 216.642 34.666l3.432 1.062.062 4.188c.577 32.204 24.798 93.271 36.395 120.735h-.02l1.114 2.611a631 631 0 0 0 5.25 12.041l1.178 2.587-1.178 2.582c-.179.385-2.227 4.96-5.25 12.05l-1.1 2.61h.006z"/></g><path d="M314.4 68h-76.8a1.6 1.6 0 0 0-1.6 1.6V140a1.6 1.6 0 0 0 1.6 1.6h76.8a1.6 1.6 0 0 0 1.6-1.6V69.6a1.6 1.6 0 0 0-1.6-1.6m-40.469 37.931-16 16a1.595 1.595 0 0 1-2.262 0 1.6 1.6 0 0 1 0-2.262l14.869-14.869-14.87-14.869a1.6 1.6 0 1 1 2.263-2.262l16 16a1.6 1.6 0 0 1 0 2.262M295.2 122.4h-16a1.6 1.6 0 1 1 0-3.2h16a1.6 1.6 0 1 1 0 3.2" fill="#193b59"/><path d="M227.69 164.41v1.786l-.46.562v-2.811zm-.965-.972v3.923l-.463.562v-4.948zm-.965-.972v6.064l-.467.558v-7.089zm-.969.098v7.13l-.463.562v-7.137zm-.968 1.165v7.134l-.46.562v-7.138zm-.965 1.165v7.134l-.463.558v-7.13zm0 25.048v8.563l-.463-3.299v-19.704c.175 1.229.463 2.481.463 3.724zm-.965-23.88v25.558l-.463-3.295V166.62zm-.969 18.68-.463-3.299V167.79l.463-.561zm-.965-6.878-.463-3.299v-5.614l.463-.558zm7.73 43.583v7.141l-.462-.407v-18.282c.158 1.122.41 2.273.463 3.403.123 2.702 0 5.44 0 8.145m-1.93-10.868v8.563l-.467-3.299v-19.7c.176 1.228.463 2.477.463 3.72zm-.969-6.878v8.563l-.463-3.299v-19.703c.176 1.228.463 2.477.463 3.72zm-.968-6.88v8.561l-.463-3.298V182.38c.175 1.228.463 2.481.463 3.723zm5.8 30.135c.078 1.095 0 2.222 0 3.323l-.463-.407v-6.21c.155 1.087.386 2.196.463 3.298m-.965-2.632v5.106l-.463-.404v-12.247c.14 1.018.298 2.029.428 3.043.186 1.467.035 3.028.035 4.502m-1.933-6.867v8.562l-.463-3.299v-19.7c.172 1.228.463 2.478.463 3.72zm-17.861 14.373c.16 1.165.445 2.369.463 3.544.017 1.46 0 2.92 0 4.38h-.467zm-.969 7.923c0-1.403-.042-2.817 0-4.224.035-1.148.302-2.316.463-3.457v7.685zm28.494-3.217v1.407l-.463.54v-2.414zm-.965-.972v3.505l-.463.537v-4.51zm-.969-.972v5.6l-.463.54v-6.607zm-.965-.267v6.994l-.463.536v-6.99zm-.968 1.123v6.993l-.463.54v-6.993zm0 23.283v8.558l-.463-3.298V244.28c.175 1.228.463 2.484.463 3.726zm-1.428-1.614v-20.002l.463-.54v23.837zm-.506-3.587-.463-3.298v-11.998l.463-.54zm-.965-6.885-.463-3.298v-3.99l.463-.537zm6.766 28.603c.06 1.358 0 2.737 0 4.099l-.463-.397v-7.134c.161 1.134.414 2.292.463 3.432m-.965-2.183v5.454l-.463-.397v-13.187c.147 1.06.344 2.12.445 3.186.158 1.621.018 3.32.018 4.948m-.969-2.867v7.499l-.463-.397v-19.25c.162 1.147.425 2.315.463 3.47.099 2.884 0 5.79 0 8.678m-.965-4.586v8.565l-.463-3.298v-19.714c.176 1.228.463 2.484.463 3.726zm-21.265-3.973h-.466v-3.242h.466zm-.968 0h-.463v-3.242h.463zm-.965 0h-.463v-3.242h.463zm-.969 0h-.463v-3.242h.463zm-.965 0h-.463v-3.242h.463zm-1.432 6.632v-9.874h.464v5.583c0 1.45-.26 2.86-.464 4.295m37.699 18.332.463.463v1.27h-.463zm-.965 1.74v-2.713l.463.467v2.246zm-.965-3.239h.442l.017.021v3.218h-.46zm-.506 3.243h-.463v-3.243h.463zm-.965 0h-.466v-3.243h.466zm-.968 0h-.463v-3.243h.463zm-.965 0h-.463v-3.243h.463zm-.969 0h-.463v-3.243h.463zm-.965 0h-.463v-3.243h.463zm-.968 0h-.463v-3.243h.463zm-.965 0h-.463v-3.243h.463zm-.969 0h-.463v-3.243h.463zm-.965 0h-.463v-3.243h.463zm-.965 0h-.463v-3.243h.463zm-.968 0h-.463v-3.243h.463zm-.965 0h-.463v-3.243h.463zm-.969 0h-.463v-3.243h.463zm-.965 0h-.463v-3.243h.463zm-.965 0h-.466v-3.243h.466zm-.968 0h-.463v-3.243h.463zm-.965 0h-.467v-3.243h.467zm-.969 0h-.463v-3.243h.463zm-.965 0h-.463v-3.243h.463zm-.968 0h-.463v-3.243h.463zm-.965 0h-.463v-3.243h.463zm-.969 0h-.463v-3.243h.463zm-.965 0h-.463v-3.243h.463zm-.968 0h-.463v-3.243h.463zm-.965 0h-.463v-3.243h.463zm-.965 0h-.463v-3.243h.463zm-.969 0h-.463v-3.243h.463zm-.965 0h-.463v-3.243h.463zm-.968 0h-.463v-3.243h.463zm-.965 0h-.463v-3.243h.463zm-1.432-.264v-2.982h.463v3.235h-.2zm-.965-.975v-2.004h.463v2.47zm-.972 1.228v-2.197l.463.562v1.635zm0-2.21v-1.032h.463v1.498zm-.502 2.21h-.463v-3.242h.463zm-.968 0h-.46v-3.242h.463zm-.965 0h-.464v-3.242h.464zm-.965-27.47v9.047c0 .635.042 1.292 0 1.927-.081 1.091-.313 2.193-.464 3.28v-16.734h.464zm0 27.466h-.46v-3.238h.463zm-1.432-7.376v-22.57h.463v19.507c0 .902-.133 1.754-.26 2.656l.26.316v.65zm.467 7.38h-.464v-3.242h.464zm-.965 0h-.464v-3.242h.464zm-.464-8.548v-14.016c0-.986-.056-1.986 0-2.972.06-1.116.306-2.246.464-3.358v20.91zm-.505 8.548h-.463v-3.239h.463zm-.463-9.71v-8.397c0-1.32.28-2.632.463-3.934v12.886zm-.502-5.474v4.867l-.463-.561c0-1.45.26-2.867.463-4.302m0 15.187h-.463v-3.242h.463zm-.965 0h-.467v-3.242h.467zm-.968 0h-.464v-3.242h.464zm-.969 0h-.463v-3.242h.463zm-.965 0h-.463v-3.242h.463zm-.965 0h-.467v-3.242h.464zm-.968 0h-.464v-3.242h.464zm-.965 0h-.464v-3.242h.464zm-.969 0h-.463v-3.242h.463zm-.965 0h-.463v-3.242h.463zm-.968 0h-.464v-3.242h.464zm-.965 0h-.464v-3.242h.464zm-.965 0h-.464v-3.242h.464zm-.969 0h-.463v-3.242h.463zm-.965 0h-.47v-3.242h.467zm-.968 0h-.464v-3.242h.464zm-.965 0h-.467v-3.242h.463zm-.969 0h-.463v-3.242h.463zm-.965 0h-.463v-3.242h.463zm-.968 0h-.464v-3.242h.464zm-.965 0h-.46v-3.242h.463zm-.969 0h-.463v-3.242h.463zm-.965 0h-.463v-3.242h.463zm-.965 0h-.463v-3.242h.463zm-.968 0h-.464v-3.242h.464zm-.965 0h-.464v-3.242h.464zm-1.432-.35v-2.892h.463v3.235h-.116zm-.965-.97v-1.922h.463v2.386zm24.037-8.976h.158l4.327 5.222H179.14l5.93-5.067 5.475-38.846-4.488-5.218 5.955-5.218 8.432-59.883h-.158l-4.326-5.218h25.38l-4.326 5.218h-.158l8.433 59.88 5.955 5.217-4.485 5.218 5.47 38.846 5.931 5.064h-25.38l4.326-5.222h.158l-3.028-21.493h-11.173zm8.611-61.163-3.48 24.728h6.965zm76.734-35.533v2.54q-.232-.014-.463-.017v-2.695zm-.965-.316v2.825h-.463v-2.945zm-.969-.221v3.046h-.463v-3.12zm-.965-.14v3.186h-.463v-3.208q.232.007.463.021m-.968-.049v3.236h-.432l-.024 82.593h-.007v-85.832zm6.769 2.316v1.53l-.467-.147V182.6q.235.172.467.351m-.969-.656v1.902q-.231-.053-.463-.098v-2.085q.01 0 .018.01.228.127.445.271m-.968-.526V184q-.228-.028-.463-.052v-2.4q.235.105.463.22m-5.797 84.693h-.463v-85.833h.463zm-.969 0h-.463v-85.833h.463zm-.965 0h-.463v-85.833h.463zm32.403-79.8v-5.801q.239.438.464.88v8.808a35 35 0 0 0-.464-3.888m-1.473-8.2v2.947c-.155-.386-.295-.775-.464-1.154v-2.443q.239.32.464.653m-.965-1.333v2.014q-.228-.456-.464-.913v-1.698q.239.295.464.597m-.965-1.208v1.383c-.158-.267-.302-.54-.464-.804v-1.115zm6.765 14.802c.05.831 0 1.684 0 2.516v67.911c0 1.418-.123 2.51-.463 3.959v-76.744c.182.761.418 1.575.463 2.358m-4.33-7.896v-3.593q.239.369.463.744v4.414c-.147-.526-.284-1.052-.463-1.565m2.902 85.552v-83.27q.246.684.463 1.378v80.5a32 32 0 0 1-.463 1.389m-.969 2.35V182.78q.24.516.464 1.046v85.854a32 32 0 0 1-.464 1.052m-.965-10.13c0-.27.036-.492.078-.762a32 32 0 0 0 .386-4.021v15.956q-.228.449-.464.89zm-.968 13.689v-10.107q.253-.779.463-1.572v10.928zm-.965 1.431v-8.948q.242-.568.463-1.158v9.457q-.228.33-.463.65m-.969 1.277v-8.194q.239-.456.464-.92v8.528zm-.965 1.147v-7.608q.236-.4.464-.807v7.882zm-.968 1.042v-7.165l.463-.695v7.376zm-.965.951v-6.793q.239-.306.463-.614v6.965zm-.969.87v-6.477q.239-.27.464-.548v6.625q-.229.204-.464.4m-.965.804v-6.208l.464-.49v6.333zm-.968.737v-5.958q.235-.225.463-.453v6.07zm-.965.684v-5.744l.463-.421v5.842zm-.969.621v-5.544q.235-.193.464-.39v5.633zm-.965.569v-5.348q.235-.183.464-.365v5.446zm-.968.526v-5.183l.467-.33v5.275q-.232.122-.467.238m-.965.488v-5.032l.463-.298v5.098zm-.969.435v-4.878q.239-.133.464-.27v4.938q-.229.105-.464.21m-.965.397v-4.73l.464-.257v4.8zm-.965.361v-4.597q.232-.109.464-.235v4.667q-.232.088-.464.165m-.968.33v-4.474l.463-.21v4.526zm-.965.28v-4.34l.463-.186v4.393zm-.969.25v-4.211q.235-.088.463-.183v4.285zm-.965.224v-4.105l.463-.162v4.162zm-.968.176v-3.987q.235-.063.463-.133v4.036zm-.965.154v-3.87l.463-.127v3.934zm-.969.127V284.4l.463-.105v3.818zm-.965.08v-3.66l.463-.084v3.71zm-.968.06v-3.544l.463-.081v3.607zm-.965.024v-3.449l.463-.06v3.499zm-.969.011v-3.362l.463-.035v3.397zm-.965 0v-3.288q.232-.014.463-.035v3.323zm-.965 0v-3.26l.463-.01v3.27zm-.968 0v-3.242l.463-.004v3.246zm-.502 0h-.463v-3.242h.463zm-.969 0h-.463v-3.242h.463zm-.965 0h-.463v-3.242h.463zm-.968 0h-.463v-3.242h.463zm-.965 0h-.463v-3.242h.463zm-.965 0h-.467v-3.242h.467zm-.969 0h-.463v-3.242h.463zm-.968 0h-.463v-3.242h.463zm-.965 0h-.463v-3.242h.463zm-.965 0h-.463v-3.242h.463zm-.969 0h-.463v-3.242h.463zm-.965 0h-.463v-3.242h.463zm-.968 0h-.463v-3.242h.463zm-.965 0h-.463v-3.242h.463zm-.969 0h-.463v-3.242h.463zm-.965 0h-.463v-3.242h.463zm-.965 0h-.466v-3.242h.466zm-.968 0h-.463v-3.242h.463zm-.965 0h-.467v-3.242h.467zm-.969 0h-.463v-3.242h.463zm-.965 0h-.463v-3.242h.463zm-.968 0h-.463v-3.242h.463zm-.965 0h-.463v-3.242h.463zm-.969 0h-.463v-3.242h.463zm-.965 0h-.463v-3.242h.463zm-.965 0h-.463v-3.242h.463zm-.968 0h-.463v-3.242h.463zm-1.428-.586v-2.656h.463v3.123zm-.969-.972v-1.684h.463v2.15zm28.368-122.959a28.294 28.294 0 0 1 28.297 28.297v62.848a28.297 28.297 0 0 1-28.297 28.298h-25.536l5.218-5.222v-38.688l-5.218-5.218 5.218-5.218V169.05l-5.218-5.218zm-5.373 14.945v89.553h5.38a13.35 13.35 0 0 0 13.348-13.349v-62.852a13.35 13.35 0 0 0-13.348-13.348zm73.221 5.141q-.235.025-.463.07v-3.017q.238.07.463.161zm-.968.165q-.232.05-.464.112v-3.463q.235.039.464.088zm-1.429.467v-3.916c.155 0 .313.02.464.035v3.698a7 7 0 0 0-.464.183m-.501.238q-.243.127-.464.274v-4.365q.228-.028.464-.039zm-.969.618a7 7 0 0 0-.463.372v-4.902q.228-.06.463-.105zm-1.93 2.106q-.263.42-.467.87v-6.752q.228-.126.463-.235zm8.696-3.25q-.229-.08-.464-.15v-1.397q.242.231.464.49zm-1.429-.333v-2.007l.13.087q.172.123.334.26v1.737a7 7 0 0 0-.464-.077m-.501-.046c-.162-.007-.306 0-.467.007v-2.533q.238.119.467.245zm-5.801 2.372q-.246.26-.463.534v-5.615q.228-.091.463-.165zm-2.067 5.443v11.324c0 1.452.133 2.884.133 4.337l-.463-.414v-24.676q.225-.18.463-.337v5.706c0 .744.036 1.498 0 2.246-.031.603-.133 1.2-.133 1.81m-.835 14.774q-.239-.235-.463-.488v-22.82q.22-.245.463-.47zm-1.428-1.888v-20.09q.21-.368.463-.712v21.556a7 7 0 0 1-.463-.754m-.962-3.769v-9.204c0-1.962-.224-4.141.456-6.011v17.847a7.7 7.7 0 0 1-.456-2.632m33.828-7.194v-14.513q.242.445.46.909v13.485zm-.969-11.945v-4.221q.24.375.464.758v5.71c-.14-.752-.281-1.5-.464-2.243m-.965-2.993v-2.66q.236.319.464.652v3.295c-.151-.431-.295-.863-.464-1.287m-.505-3.327v2.12c-.15-.33-.295-.66-.463-.983v-1.727q.235.292.463.59m4.369 17.749v-9.338q.263.864.463 1.755v7.46zm-.965.26v-12.247q.242.572.463 1.158v10.962zm-1.934.516v-4.106l.464-.123v4.106zm-.968.256v-4.102l.463-.123v4.105zm-.502-3.966v4.103l-.463.122v-4.105zm-.968.257v4.105l-.464.123v-4.106zm-.965 4.361-.464.123v-4.105l.464-.12zm-.969.257-.46.126v-4.106l.46-.123zm-.965.26-.463.122v-4.106l.463-.119zm-.965.259-.463.123v-4.106l.463-.123zm-.968.256-.464.126v-4.105l.464-.123zm-.965.26-.464.123v-4.106l.464-.12zm-.969.256-.463.126v-4.105l.463-.123zm-.965.26-.463.122v-4.105l.463-.123zm-.965.26-.467.122v-4.106l.467-.122zm-.968-3.847v4.102l-.464.12v-4.102zm-.969.256v4.106l-.463.123v-4.106zm-.965.26v4.106l-.463.12v-4.103zm-.965 3.867-.463-.467v-3.017l.463-.127zm-1.432-1.439v-1.79l.464-.122v2.38zm3.867 26.473v-7.688l.464.463v7.636zm-.968-.86v-7.8l.463.463v7.748zm-.965-.86v-7.916l.463.467v7.86zm-10.633 15.535.464.414v1.123l-.464.028zm-.968-.86.467.415v2.039l-.467.028zm-.965-.86.463.415v2.955l-.463.028zm-.969.022.463-.028v3.432l-.463.028zm-.965.056.463-.024v3.428l-.463.028zm-.502.032v3.432l-.463.028v-3.432zm-.968.056v3.432l-.463.028v-3.432zm-.969.056v3.432l-.463.028v-3.432zm-.965.056v3.334l-.463-.467v-2.839zm-1.428.084.463-.028v2.306l-.463-.467zm3.864 30.003v-9.411l.316.316v3.628c0 1.386-.12 2.85.15 4.218v1.579a7 7 0 0 1-.466-.33m-.965-.902v-9.478l.463.463v9.489a7 7 0 0 1-.463-.474m-.969-1.333v-9.113l.467.463v9.37a7 7 0 0 1-.467-.713m-.965-3.432v-6.67l.463.466v8.545a7.4 7.4 0 0 1-.463-2.352m36.877-1.066c0 2.246.088 4.526-.143 6.765v-18.36c.133 1.27.143 2.545.143 3.826zm-1.112 11.562v-27.974q.267.884.463 1.79v24.412q-.2.898-.463 1.772m-2.899-30.013v-4.32q.24.38.464.762v5.81a32 32 0 0 0-.464-2.252m-.968-3.053v-2.706q.242.327.467.664v3.344a28 28 0 0 0-.467-1.306m-.965-2.203v-1.755q.235.288.463.586v2.155a28 28 0 0 0-.463-.986m-.969-1.78v-1.084q.236.256.464.52v1.379q-.225-.41-.464-.814m4.84 39.74V239.08q.242.58.463 1.169v30.985a25 25 0 0 1-.463 1.165m-.969 2.014v-37.372q.242.457.463.923v35.548a25 25 0 0 1-.463.901m-.965 1.667v-10.773q.28-1.123.463-2.267v12.272a28 28 0 0 1-.463.768m-.969 1.428v-9.162a25 25 0 0 0 .464-1.298v9.815q-.225.33-.464.649m-.965 1.263v-8.232q.243-.484.464-.986v8.625q-.228.298-.464.59m-.968 1.109v-7.57q.239-.4.463-.807v7.847zm-.965.993v-7.06q.235-.345.463-.695v7.288zm-.965.898v-6.653q.235-.295.463-.597v6.836zm-.969.814v-6.31l.464-.533v6.471zm-.968.744v-6.018q.239-.239.463-.488v6.159zm-.965.674v-5.762q.235-.214.463-.439v5.885zm-.969.614v-5.534q.24-.197.464-.404v5.643l-.464.291m-.965.555v-5.313q.236-.182.464-.365v5.418q-.232.137-.464.267m-.965.498v-5.127q.232-.161.464-.33v5.218zm-.968.45v-4.949q.235-.143.463-.298v5.036zm-.969.403v-4.78l.467-.266v4.863zm-.965.361v-4.621l.464-.239v4.699zm-.965.323v-4.478l.464-.21v4.537zm-.968.274v-4.33l.463-.193v4.39zm-.965.231v-4.179q.228-.088.463-.182v4.253zm-.969.197v-4.05q.235-.077.464-.158v4.127zm-.965.165v-3.93l.464-.13v3.986zm-.968.123v-3.8l.463-.106v3.846zm-.965.08v-3.67l.463-.095v3.73zm-.969.05v-3.545q.235-.038.464-.084v3.614q-.229.014-.464.014m-.965.022v-3.436q.232-.024.464-.06v3.488zm-.965-.025v-3.313q.232-.014.464-.035v3.362zm-.968-.06v-3.186l.463-.028v3.25q-.232-.015-.463-.036m-.969-.087v-3.074q.235 0 .467-.01v3.136zm-.965-.123v-2.965q.232.014.464.014v3.01q-.232-.028-.464-.06m-.965-.175v-2.832l.464.032v2.885zm-.968-.203v-2.702q.231.024.463.035v2.772zm-.965-.239v-2.586l.463.06v2.649zm-.969-.28v-2.457l.463.08v2.513zm-.965-.327v-2.32q.228.053.463.099v2.379zm-.968-.372v-2.176l.463.11v2.249q-.232-.088-.463-.183m-.965-.41v-2.04l.463.134v2.113q-.235-.099-.463-.211m-.969-.46v-1.891l.463.158v1.965zm-.965-.508v-1.734q.225.098.463.182v1.8q-.238-.119-.463-.245m-.968-.561v-1.569q.228.105.463.197v1.645q-.232-.133-.463-.27m-.965-.621v-1.386l.463.21v1.474q-.235-.147-.463-.298m-.969-.684v-1.2l.463.238v1.292zm12.363-119.38a24.32 24.32 0 0 1 24.307 24.308l-14.941 3.993v-3.597c0-5.127-3.952-9.6-9.078-9.755a9.37 9.37 0 0 0-9.65 9.362v12.679c0 2.79 1.193 5.45 3.277 7.302l7.17 6.38 7.347-.432.432 7.348 7.288 6.481a24.32 24.32 0 0 1 8.155 18.163v12.907a24.308 24.308 0 1 1-48.615 0l14.942-3.994v3.994a9.37 9.37 0 0 0 10.538 9.292c4.755-.58 8.194-4.86 8.194-9.65v-12.324c0-2.79-1.194-5.45-3.281-7.302l-7.173-6.38-7.345.432-.431-7.348-7.289-6.482a24.32 24.32 0 0 1-8.155-18.163V188.15a24.31 24.31 0 0 1 24.308-24.307M199.529 302.568a3.534 3.534 0 0 1 3.505 3.53 3.534 3.534 0 0 1-3.529 3.529 3.51 3.51 0 0 1-3.275-2.22l.28-.13.038-.016a3.16 3.16 0 0 0 2.956 2.014c1.75 0 3.176-1.425 3.176-3.176s-1.425-3.177-3.176-3.177v-.005a1.393 1.393 0 0 1-1.367-1.39c0-.767.625-1.393 1.393-1.393.567 0 1.055.337 1.271.826l-.32.148a1.03 1.03 0 0 0-.952-.621 1.042 1.042 0 0 0 0 2.083m-1.575-1.04c0 .868.708 1.574 1.575 1.575a2.997 2.997 0 0 1 2.97 2.994 3 3 0 0 1-2.995 2.995 3.005 3.005 0 0 1-2.79-1.911l.319-.148a2.65 2.65 0 0 0 2.47 1.707c1.458 0 2.643-1.185 2.643-2.643s-1.185-2.643-2.642-2.643v-.001a1.93 1.93 0 0 1-1.902-1.926 1.93 1.93 0 0 1 1.927-1.927c.765 0 1.447.458 1.755 1.136l-.32.148a1.58 1.58 0 0 0-1.435-.932 1.576 1.576 0 0 0-1.574 1.574m3.814-1.015-.32.15a2.12 2.12 0 0 0-1.92-1.242c-1.162 0-2.108.945-2.108 2.108s.946 2.109 2.109 2.109a2.46 2.46 0 0 1 2.435 2.458 2.463 2.463 0 0 1-2.46 2.46 2.47 2.47 0 0 1-2.304-1.603l.321-.148a2.12 2.12 0 0 0 1.983 1.4c1.162 0 2.108-.946 2.108-2.109s-.946-2.109-2.11-2.109a2.46 2.46 0 0 1-2.434-2.46 2.463 2.463 0 0 1 2.46-2.46 2.48 2.48 0 0 1 2.24 1.446m.487-.225-.321.147a2.65 2.65 0 0 0-2.408-1.55 2.643 2.643 0 0 0 0 5.285v.002a1.93 1.93 0 0 1 1.901 1.925 1.93 1.93 0 0 1-1.926 1.928 1.94 1.94 0 0 1-1.818-1.295l.321-.148c.209.64.814 1.091 1.499 1.091a1.576 1.576 0 0 0 0-3.15 2.997 2.997 0 0 1-2.97-2.994 3 3 0 0 1 2.995-2.996c1.178 0 2.242.696 2.726 1.755m-2.751 4.768A3.534 3.534 0 0 1 196 301.53a3.53 3.53 0 0 1 3.529-3.53c1.397 0 2.634.805 3.209 2.066l-.32.148a3.16 3.16 0 0 0-2.89-1.86c-1.75 0-3.175 1.425-3.175 3.176s1.425 3.176 3.176 3.176v.002a1.393 1.393 0 0 1 1.366 1.39 1.393 1.393 0 0 1-1.392 1.393 1.39 1.39 0 0 1-1.33-.986l.322-.15a1.042 1.042 0 0 0 2.05-.257 1.04 1.04 0 0 0-1.041-1.04m4.699 4.57h-.352v-11.385h.352zm.542 0h-.352v-11.385h.352zm.544 0h-.352v-11.385h.352zm.543 0h-.352v-11.385h.352zm4.674-11.035h-4.13v.191h4.13v.352h-4.13v.19h4.13v.352h-4.13v.193h4.13v.351h-4.13v.191h4.13v.352h-4.13v2.187h3.004v.353h-3.004v.191h3.005v.35h-3.005v.193h3.005v.352h-3.005v.19h3.005v.353h-3.005v.191h3.005v.353h-3.005v1.625h4.13v.352h-4.13v.19h4.13v.352h-4.13v.193h4.13v.35h-4.13v.192h4.13v.352h-4.13v.19h4.13v.352h-4.482v-11.383h4.481zm4.42-.35h.359l-2.036 11.385h-.358zm-.52 0h.357l-2.036 11.385h-.358zm-.523 0h.359l-2.035 11.385h-.359zm-.52 0h.357l-2.035 11.385h-.358zm9.695 0v.003h.379l2.035 11.383h-.358l-1.267-7.085-3.017 7.085h-.383l3.287-7.718-.053-.29-3.41 8.008h-.382l3.678-8.64-.052-.292-3.803 8.932h-.382l4.072-9.564-.051-.289-4.196 9.854h-.383l4.465-10.488-.053-.291-4.588 10.777h-.679l-2.904-6.94-1.24 6.94h-.359l2.035-11.384h.359l-.002.008 3.563 8.657zm-4.804 11.283.077-.18-3.153-7.593-.053.294zm.27-.634.089-.206-3.269-7.867-.053.294zm.282-.66.088-.207-3.382-8.141-.053.293zm.281-.66.087-.207-3.485-8.47-.061.348zm4.507-9.329h.359l2.035 11.383h-.357zm.521 0h.359l2.036 11.383h-.359zm.522 0h.357l2.036 11.383h-.358zm.878 0 2.036 11.383h-.358l-2.034-11.382zm7.614-.004h.382l-4.748 11.387h-.383zm.544 0h.382l-4.748 11.387h-.381zm.546 0h.38l-4.749 11.387h-.38zm.543 0h.383l-4.75 11.387h-.382zm5.312 11.387-4.538-11.025-.097.236 4.44 10.79h-.38l-4.252-10.332-.097.236 4.156 10.097h-.38l-3.966-9.64-.098.234 3.868 9.407h-.38l-3.68-8.946-.099.233 3.585 8.71h-.38l-.854-2.079h-5.113l-.868 2.08h-.382l4.749-11.388h.461l4.685 11.387zm-3.3-2.432-.075-.182h-4.669l-.076.182zm-.22-.535-.076-.182h-4.226l-.077.182zm-.22-.535-.077-.182h-3.782l-.076.183zm-.22-.534-.075-.183h-3.34l-.077.183zm-.22-.535-1.514-3.679-1.534 3.679zm5.738 4.571h-.352V298.26h.352zm.544 0h-.352V298.26h.352zm.542 0h-.351V298.26h.351zm.545 0h-.352V298.26h.352zm7.305-11.366h.351v11.366h-.434l-6.68-10.755v.312l.003-.001 6.487 10.446h-.414l-6.075-9.783v.306l5.885 9.477h-.413l-5.473-8.811v.305l5.282 8.505h-.415l-4.867-7.838v.306l4.679 7.533h-.416l-4.263-6.867v6.865h-.352v-7.432l-.003-.006.003-.001v-3.926h.387l4.555 7.334v-7.334h.352v7.9l.192.308v-8.21h.35v8.777l.192.307v-9.082h.352v9.648l.19.31v-9.958h.352v10.524l.193.308zm5.918-.021h.382l-4.748 11.387h-.383zm.544 0h.382l-4.748 11.387h-.381zm.545 0h.38l-4.748 11.387h-.38zm.544 0h.382l-4.75 11.387h-.381zm5.313 11.388-4.539-11.026-.098.236 4.441 10.79h-.38l-4.252-10.332-.098.236 4.157 10.097h-.38l-3.966-9.64-.098.234 3.868 9.407h-.38l-3.681-8.946-.098.233 3.585 8.71h-.381l-.854-2.079h-5.112l-.869 2.08h-.381l4.748-11.388h.462l4.685 11.387zm-3.3-2.432-.075-.182h-4.669l-.077.182zm-.22-.535-.077-.182h-4.226l-.076.182zm-.22-.535-.077-.182h-3.782l-.076.183zm-.22-.534-.076-.183h-3.34l-.076.183zm-.22-.535-1.515-3.679-1.534 3.679zm14.32-6.817h.382l-4.747 11.388h-.383zm.544 0h.382l-4.747 11.388h-.382zm.546 0h.38l-4.748 11.388h-.38zm.543 0h.383l-4.75 11.388h-.381zm5.313 11.388-4.539-11.026-.098.236 4.441 10.79h-.381l-4.251-10.332-.098.236 4.156 10.098h-.38l-3.966-9.639-.098.234 3.868 9.406h-.38l-3.68-8.947-.098.233 3.585 8.71h-.381l-.854-2.079h-5.112l-.869 2.08h-.382l4.75-11.388h.46l4.686 11.387zm-3.3-2.432-.075-.182h-4.67l-.076.182zm-.22-.535-.077-.182h-4.226l-.076.182zm-.22-.535-.077-.182h-3.782l-.076.183zm-.22-.534-.076-.183h-3.34l-.076.183zm-.22-.535-1.515-3.679-1.534 3.679zm5.801-1.116a3.65 3.65 0 0 1 3.643-3.642h.702v.352h-.702c-1.815 0-3.29 1.476-3.29 3.29s1.475 3.291 3.29 3.291h.702v.353h-.702a3.65 3.65 0 0 1-3.643-3.643m-.511 0a4.16 4.16 0 0 1 4.153-4.153h.703v.352h-.702c-2.097 0-3.802 1.705-3.802 3.802s1.705 3.801 3.802 3.801h.702v.352h-.702a4.16 4.16 0 0 1-4.154-4.153m-.51 0a4.67 4.67 0 0 1 4.665-4.664h.702v.352h-.702c-2.378 0-4.313 1.935-4.313 4.313s1.935 4.312 4.313 4.312h.702v.352h-.702a4.67 4.67 0 0 1-4.665-4.664m-.512 0a5.18 5.18 0 0 1 5.177-5.175h.702v.352h-.702c-2.66 0-4.824 2.164-4.824 4.823s2.164 4.824 4.824 4.824h.702v.352h-.702a5.18 5.18 0 0 1-5.177-5.176m5.177-5.686h.702v.353h-.702c-2.942 0-5.335 2.393-5.335 5.334s2.393 5.334 5.335 5.334h.702v.352h-.702c-3.136 0-5.687-2.551-5.687-5.686s2.55-5.687 5.687-5.687m6.277-.014h.382l-4.748 11.387h-.383zm.544 0h.382l-4.748 11.387h-.381zm.546 0h.38l-4.749 11.387h-.38zm.543 0h.383l-4.75 11.387h-.382zm5.312 11.387-4.538-11.027-.097.237 4.44 10.79h-.38l-4.252-10.333-.098.236 4.156 10.099h-.38l-3.966-9.64-.098.234 3.868 9.407h-.38l-3.68-8.946-.098.233 3.585 8.71h-.381l-.853-2.079h-5.113l-.868 2.08h-.382l4.748-11.388h.462l4.685 11.387zm-3.3-2.432-.075-.182h-4.669l-.076.182zm-.22-.535-.076-.182h-4.226l-.077.182zm-.22-.535-.077-.182h-3.782l-.076.183zm-.22-.534-.075-.183h-3.34l-.077.183zm-.22-.535-1.514-3.679-1.534 3.68zm11.512-5.13a5.64 5.64 0 0 1 1.666 4.024c0 2.994-2.35 5.477-5.303 5.677h-.5v-11.37h.353v.005a5.65 5.65 0 0 1 3.784 1.66m-3.784.739v6.57a3.31 3.31 0 0 0 3.053-3.284 3.31 3.31 0 0 0-3.053-3.286m0 6.922v.16a3.82 3.82 0 0 0 3.565-3.796 3.823 3.823 0 0 0-3.565-3.798v.16a3.663 3.663 0 0 1 3.405 3.638 3.663 3.663 0 0 1-3.405 3.636m0 .513v.16c2.263-.126 4.076-2.022 4.076-4.31s-1.813-4.181-4.076-4.309v.159c2.176.126 3.918 1.953 3.918 4.15s-1.743 4.024-3.918 4.15m0 .512v.16c2.546-.127 4.589-2.252 4.589-4.822 0-2.568-2.043-4.694-4.589-4.821v.16c2.457.127 4.428 2.182 4.428 4.662s-1.97 4.536-4.428 4.661m0 .671c2.828-.127 5.1-2.48 5.1-5.332a5.3 5.3 0 0 0-1.564-3.776 5.3 5.3 0 0 0-3.536-1.558v.16c2.738.127 4.939 2.412 4.939 5.174s-2.199 5.045-4.939 5.172zm-.497.345h-.352V298.26h.352zm-.497 0h-.353V298.26h.352zm-.498 0h-.352V298.26h.352zm-.497 0h-.353V298.26h.352zm8.616.002h-.353v-11.386h.352zm.542 0h-.352v-11.386h.352zm.544 0h-.352v-11.386h.352zm.542 0h-.352v-11.386h.352zm4.675-11.035h-4.131v.191h4.13v.352h-4.13v.19h4.13v.352h-4.13v.192h4.13v.352h-4.13v.19h4.13v.353h-4.13v2.187h3.004v.353h-3.004v.191h3.005v.35h-3.005v.192h3.005v.353h-3.005v.19h3.005v.352h-3.005v.192h3.005v.352h-3.005v1.625h4.13v.352h-4.13v.19h4.13v.352h-4.13v.193h4.13v.35h-4.13v.192h4.13v.352h-4.13v.19h4.13v.352H311v-11.383h4.482zm4.42-.35h.358l-2.037 11.384h-.358zm-.52 0h.356l-2.037 11.384h-.357zm-.523 0h.358l-2.037 11.384h-.358zm-.52 0h.356l-2.036 11.384h-.358zm9.695 0v.003h.378l2.036 11.383h-.359l-1.267-7.085-3.016 7.085h-.383l3.287-7.718-.053-.29-3.41 8.008h-.383l3.679-8.64-.052-.292-3.804 8.932h-.381l4.071-9.564-.05-.29-4.197 9.855h-.382l4.464-10.488-.053-.291-4.587 10.777h-.68l-2.904-6.94-1.242 6.939h-.358l2.035-11.384h.359l-.002.008 3.563 8.657zm-4.804 11.283.076-.181-3.152-7.592-.053.294zm.27-.634.088-.207-3.268-7.867-.053.294zm.281-.661.089-.206-3.382-8.142-.053.294zm.282-.66.087-.206-3.486-8.47-.06.348zm4.507-9.328h.358l2.035 11.383h-.357zm.52 0h.36l2.035 11.383h-.358zm.523 0h.357l2.036 11.383h-.359zm.878 0 2.036 11.383h-.359l-2.034-11.383zm3.217 11.383h-.352v-11.384h.352zm.544 0h-.352v-11.384h.352zm.542 0h-.352v-11.384h.352zm.544 0h-.352v-11.384h.352zm.542 0h-.351v-11.384h.351zm2.875-5.686a3.65 3.65 0 0 1 3.643-3.643h.702v.352h-.702c-1.815 0-3.29 1.476-3.29 3.29s1.475 3.291 3.29 3.291h.702v.353h-.702a3.65 3.65 0 0 1-3.643-3.643m-.511 0a4.16 4.16 0 0 1 4.153-4.153h.703v.351h-.702c-2.097 0-3.802 1.706-3.802 3.802s1.705 3.801 3.802 3.801h.702v.352h-.702a4.16 4.16 0 0 1-4.153-4.153m-.511 0a4.67 4.67 0 0 1 4.665-4.665h.702v.353h-.702c-2.378 0-4.313 1.934-4.313 4.312s1.935 4.312 4.313 4.312h.702v.353h-.702a4.67 4.67 0 0 1-4.665-4.665m-.511 0a5.18 5.18 0 0 1 5.176-5.176h.702v.352h-.702c-2.66 0-4.824 2.164-4.824 4.824s2.164 4.824 4.824 4.824h.702v.351h-.702a5.18 5.18 0 0 1-5.176-5.175m5.176-5.687h.702v.353h-.702c-2.942 0-5.334 2.392-5.334 5.334s2.392 5.334 5.334 5.334h.702v.352h-.702c-3.136 0-5.687-2.551-5.687-5.686s2.55-5.687 5.687-5.687m6.277-.015h.382l-4.748 11.388h-.383zm.544 0h.382l-4.748 11.388h-.38zm.546 0h.38l-4.749 11.388h-.38zm.543 0h.383l-4.75 11.388h-.382zm5.312 11.388-4.538-11.027-.097.236 4.44 10.791h-.38l-4.252-10.333-.097.236 4.155 10.099h-.38l-3.966-9.64-.098.234 3.869 9.406h-.38l-3.68-8.946-.099.234 3.585 8.71h-.38l-.854-2.08h-5.113l-.868 2.08h-.382l4.749-11.388h.461l4.686 11.388zm-3.3-2.432-.075-.182h-4.668l-.077.182zm-.22-.535-.076-.182H347.8l-.077.182zm-.22-.535-.077-.182h-3.782l-.076.183zm-.22-.534-.075-.183h-3.34l-.076.183zm-.22-.535-1.514-3.679-1.534 3.679z" fill="#732d14"/></svg>
